<svg xmlns="http://www.w3.org/2000/svg" width="2407" zoomAndPan="magnify"
     viewBox="0 0 1805.25 618.749987" height="825" preserveAspectRatio="xMidYMid meet" version="1.0">
    <defs>
        <clipPath id="06ac59badc">
            <path d="M 1048.023438 141.023438 L 1238.703125 141.023438 L 1238.703125 250.503906 L 1048.023438 250.503906 Z M 1048.023438 141.023438 "
                  clip-rule="nonzero"/>
        </clipPath>
        <clipPath id="1ba4d0998a">
            <path d="M 1098.753906 159.101562 L 1238.703125 159.101562 L 1238.703125 214.847656 L 1098.753906 214.847656 Z M 1098.753906 159.101562 "
                  clip-rule="nonzero"/>
        </clipPath>
        <clipPath id="91347f327d">
            <path d="M 565.648438 13.460938 L 1144 13.460938 L 1144 591 L 565.648438 591 Z M 565.648438 13.460938 "
                  clip-rule="nonzero"/>
        </clipPath>
        <clipPath id="24673d7130">
            <path d="M 607 13.460938 L 844 13.460938 L 844 227 L 607 227 Z M 607 13.460938 " clip-rule="nonzero"/>
        </clipPath>
        <clipPath id="37aee0c6e4">
            <path d="M 859 13.460938 L 935 13.460938 L 935 83 L 859 83 Z M 859 13.460938 " clip-rule="nonzero"/>
        </clipPath>
        <clipPath id="202f5a60ee">
            <path d="M 854 13.460938 L 1019 13.460938 L 1019 65 L 854 65 Z M 854 13.460938 " clip-rule="nonzero"/>
        </clipPath>
        <clipPath id="e5c3fb2e2e">
            <path d="M 565.648438 13.460938 L 1093 13.460938 L 1093 515 L 565.648438 515 Z M 565.648438 13.460938 "
                  clip-rule="nonzero"/>
        </clipPath>
        <clipPath id="2af5203cf3">
            <path d="M 607 13.460938 L 844 13.460938 L 844 227 L 607 227 Z M 607 13.460938 " clip-rule="nonzero"/>
        </clipPath>
        <clipPath id="c83ebde4c8">
            <path d="M 859 13.460938 L 935 13.460938 L 935 83 L 859 83 Z M 859 13.460938 " clip-rule="nonzero"/>
        </clipPath>
        <clipPath id="25f048a901">
            <path d="M 1116 519.1875 L 1176.105469 519.1875 L 1176.105469 604.964844 L 1116 604.964844 Z M 1116 519.1875 "
                  clip-rule="nonzero"/>
        </clipPath>
    </defs>
    <path fill="#5b7b3f"
          d="M 1187.800781 35.835938 C 1187.75 37.863281 1187.675781 39.898438 1187.550781 41.925781 C 1185.726562 74.074219 1175.113281 105.71875 1157.210938 132.269531 C 1154.785156 135.875 1152.21875 139.386719 1149.523438 142.792969 C 1139.199219 155.855469 1126.945312 167.371094 1113 176.683594 C 1098.457031 186.386719 1082.320312 193.617188 1065.449219 198.183594 C 1060.101562 199.636719 1054.683594 200.820312 1049.214844 201.730469 C 1037.886719 203.617188 1026.363281 204.328125 1014.882812 203.820312 C 1011.824219 198.910156 1010.808594 193.015625 1010.234375 187.257812 C 1005.8125 142.511719 1026.265625 96.621094 1061.007812 68.066406 C 1094.414062 40.605469 1139.820312 29.148438 1182.675781 35.046875 C 1184.386719 35.28125 1186.097656 35.542969 1187.800781 35.835938 "
          fill-opacity="1" fill-rule="nonzero"/>
    <path fill="#4d6b32"
          d="M 1157.210938 132.269531 C 1145.472656 149.703125 1130.585938 164.941406 1113 176.683594 C 1093.847656 189.46875 1071.925781 197.949219 1049.214844 201.730469 C 1057.472656 188.144531 1066.167969 174.730469 1077.457031 163.597656 C 1098.367188 142.988281 1127.902344 131.496094 1157.210938 132.269531 "
          fill-opacity="1" fill-rule="nonzero"/>
    <g clip-path="url(#06ac59badc)">
        <path fill="#5b7b3f"
              d="M 1238.703125 161.667969 C 1237.675781 163.894531 1236.585938 166.105469 1235.441406 168.296875 C 1221.59375 194.796875 1199.148438 218.261719 1173.027344 232.347656 C 1144.757812 247.605469 1111.480469 253.394531 1079.71875 248.589844 C 1068.769531 246.929688 1057.792969 243.917969 1048.496094 237.894531 C 1051.710938 223.765625 1057.546875 210.3125 1065.445312 198.183594 L 1065.449219 198.183594 C 1079.40625 176.738281 1099.824219 159.4375 1123.609375 149.910156 C 1131.957031 146.570312 1140.660156 144.203125 1149.523438 142.792969 C 1178.808594 138.136719 1209.804688 143.917969 1235.125 159.390625 C 1236.332031 160.132812 1237.519531 160.886719 1238.703125 161.667969 "
              fill-opacity="1" fill-rule="nonzero"/>
    </g>
    <path fill="#4d6b32"
          d="M 1187.800781 35.835938 C 1187.75 37.863281 1187.675781 39.898438 1187.550781 41.925781 C 1152.746094 81.753906 1113.914062 118.195312 1071.960938 150.390625 L 1066.972656 143.882812 C 1109.011719 111.621094 1147.886719 75.046875 1182.675781 35.046875 C 1184.386719 35.28125 1186.097656 35.542969 1187.800781 35.835938 "
          fill-opacity="1" fill-rule="nonzero"/>
    <g clip-path="url(#1ba4d0998a)">
        <path fill="#4d6b32"
              d="M 1238.703125 161.667969 C 1237.675781 163.894531 1236.585938 166.105469 1235.441406 168.296875 C 1192.320312 188.398438 1147.089844 203.914062 1100.703125 214.488281 L 1098.878906 206.496094 C 1145.832031 195.789062 1191.585938 179.972656 1235.125 159.390625 C 1236.332031 160.132812 1237.519531 160.886719 1238.703125 161.667969 "
              fill-opacity="1" fill-rule="nonzero"/>
    </g>
    <g clip-path="url(#91347f327d)">
        <path fill="#97b27d"
              d="M 1143.316406 302.164062 C 1143.316406 397.011719 1097.570312 481.175781 1026.933594 533.804688 C 978.828125 569.644531 919.175781 590.863281 854.570312 590.863281 C 728.398438 590.863281 621.125 509.945312 581.828125 397.183594 C 571.464844 367.429688 565.828125 335.453125 565.828125 302.164062 C 565.828125 247.3125 581.125 196.03125 607.695312 152.359375 C 656.496094 72.125 743.320312 17.566406 843.160156 13.683594 C 846.945312 13.53125 850.75 13.460938 854.570312 13.460938 C 856.128906 13.460938 857.679688 13.472656 859.230469 13.496094 C 885.300781 13.914062 910.527344 17.777344 934.480469 24.664062 C 964.675781 33.335938 992.835938 46.804688 1018.09375 64.195312 C 1044.695312 82.5 1068.070312 105.148438 1087.203125 131.113281 C 1122.476562 178.988281 1143.316406 238.140625 1143.316406 302.164062 "
              fill-opacity="1" fill-rule="nonzero"/>
    </g>
    <g clip-path="url(#24673d7130)">
        <path fill="#698c4b"
              d="M 835.777344 84.925781 C 834.882812 88.386719 832.507812 91.304688 829.734375 93.558594 C 814.371094 106.066406 789.464844 99.402344 773.96875 111.742188 C 769.558594 115.25 766.039062 120.238281 760.671875 121.976562 C 755.152344 123.761719 749.238281 121.632812 743.480469 120.9375 C 729.792969 119.292969 715.457031 126.796875 709.007812 138.980469 C 706.960938 142.832031 705.585938 147.164062 702.53125 150.28125 C 699.472656 153.394531 693.84375 154.644531 690.910156 151.414062 C 689.480469 149.835938 689.058594 147.625 688.246094 145.664062 C 685.683594 139.457031 678.765625 136.058594 672.277344 136.257812 C 664.230469 136.507812 658.527344 144.046875 655.175781 150.777344 C 652.757812 155.628906 651.746094 161.34375 653.285156 166.542969 C 654.476562 170.585938 657.089844 174.027344 658.988281 177.792969 C 660.882812 181.558594 662.03125 186.148438 660.15625 189.921875 C 658.789062 192.667969 656.042969 194.515625 654.648438 197.246094 C 653.066406 200.351562 653.472656 204.085938 654.304688 207.476562 C 655.128906 210.863281 656.335938 214.238281 656.21875 217.71875 C 656.109375 221.203125 654.242188 224.949219 650.898438 225.921875 C 648.121094 226.730469 645.054688 225.386719 643.113281 223.242188 C 636.789062 216.269531 637.457031 205.007812 630.550781 198.246094 C 626.921875 194.6875 621.425781 193.09375 618.722656 188.792969 C 614.722656 182.4375 618.839844 173.886719 616.765625 166.660156 C 615.882812 163.601562 613.949219 160.976562 612.039062 158.425781 C 610.453125 156.300781 609 154.285156 607.695312 152.359375 C 656.496094 72.125 743.320312 17.566406 843.160156 13.683594 C 843.804688 27.402344 844.460938 41.410156 835.828125 51.480469 C 834.21875 53.351562 832.25 55.046875 829.863281 55.683594 C 823.652344 57.359375 818.207031 51.710938 812.867188 48.113281 C 807.527344 44.519531 797.570312 44.996094 797.53125 51.429688 C 797.503906 55.597656 802.054688 58.128906 806.019531 59.40625 C 812.949219 61.640625 820.304688 62.957031 826.507812 66.777344 C 832.707031 70.589844 837.589844 77.875 835.777344 84.925781 "
              fill-opacity="1" fill-rule="nonzero"/>
    </g>
    <g clip-path="url(#37aee0c6e4)">
        <path fill="#698c4b"
              d="M 934.480469 24.664062 C 933.003906 30.542969 929.671875 35.878906 924.617188 39.179688 C 921.714844 41.082031 918.34375 42.285156 915.714844 44.558594 C 912.578125 47.273438 910.746094 51.304688 907.460938 53.835938 C 900.316406 59.332031 887.390625 57.210938 884.054688 65.585938 C 882.578125 69.308594 883.898438 73.738281 882.234375 77.375 C 879.816406 82.636719 871.964844 83.378906 867.269531 80 C 862.570312 76.613281 860.535156 70.617188 859.699219 64.886719 C 857.929688 52.75 860.300781 40.425781 860.511719 28.15625 C 860.59375 23.308594 860.25 18.292969 859.230469 13.496094 C 885.300781 13.914062 910.527344 17.777344 934.480469 24.664062 "
              fill-opacity="1" fill-rule="nonzero"/>
    </g>
    <path fill="#698c4b"
          d="M 709.9375 236.425781 C 694.214844 225.871094 673.355469 237.886719 664.457031 251.679688 C 663.859375 252.605469 663.28125 253.542969 662.714844 254.484375 C 654.753906 267.796875 649.464844 283.230469 646.34375 298.394531 C 643.304688 313.140625 644.160156 329.601562 650.753906 343.289062 C 657.808594 357.933594 671.175781 369.050781 676.960938 384.242188 C 681.878906 397.148438 680.738281 411.574219 677.882812 425.089844 C 675.023438 438.601562 670.53125 451.796875 668.871094 465.507812 C 667.25 478.914062 668.410156 492.648438 672.25 505.59375 C 675.40625 516.238281 681.3125 527.242188 691.714844 531.121094 C 693.765625 531.886719 696.050781 532.335938 698.132812 531.664062 C 700.390625 530.9375 702.050781 529.015625 703.304688 527.003906 C 712.371094 512.417969 706.285156 489.714844 720.078125 479.480469 C 726.753906 474.523438 736.046875 474.527344 743.027344 470.011719 C 757.800781 460.457031 754.769531 437.421875 765.113281 423.191406 C 769.640625 416.964844 776.445312 412.859375 783.0625 408.925781 C 793.890625 402.488281 804.71875 396.050781 815.546875 389.613281 C 825.597656 383.636719 835.796875 377.542969 843.730469 368.949219 C 851.660156 360.359375 857.140625 348.765625 855.722656 337.160156 C 854.332031 325.796875 845.945312 315.589844 835.070312 312.015625 C 829.058594 310.039062 822.292969 309.878906 817.082031 306.285156 C 811.449219 302.398438 808.933594 295.394531 804.289062 290.363281 C 791.484375 276.496094 766.816406 281.097656 753.117188 268.117188 C 746.742188 262.070312 743.402344 252.714844 735.554688 248.761719 C 730.59375 246.261719 724.605469 246.402344 719.683594 243.816406 C 716.066406 241.917969 713.328125 238.703125 709.9375 236.425781 "
          fill-opacity="1" fill-rule="nonzero"/>
    <path fill="#698c4b"
          d="M 1143.316406 302.164062 C 1143.316406 397.011719 1097.570312 481.175781 1026.933594 533.804688 C 1021.511719 532.570312 1016.359375 530.808594 1011.761719 528.519531 C 1003.644531 524.488281 996.707031 516.855469 996.078125 507.804688 C 994.847656 489.9375 1017.386719 476.160156 1014.207031 458.539062 C 1013.578125 455.046875 1011.9375 451.453125 1013.128906 448.117188 C 1015.023438 442.804688 1022.410156 442.070312 1026.199219 437.898438 C 1029.910156 433.800781 1029.3125 427.335938 1027.125 422.265625 C 1027.042969 422.082031 1026.960938 421.902344 1026.875 421.722656 C 1024.6875 416.875 1021.378906 412.523438 1019.761719 407.457031 C 1017.011719 398.839844 1019.921875 388.707031 1026.828125 382.863281 C 1030.34375 379.882812 1034.71875 377.984375 1037.980469 374.722656 C 1041.238281 371.464844 1043.0625 365.921875 1040.222656 362.296875 C 1037.160156 358.378906 1029.898438 358.085938 1028.992188 353.195312 C 1028.628906 351.253906 1029.539062 349.324219 1029.808594 347.367188 C 1030.570312 341.660156 1025.535156 336.5 1019.984375 334.96875 C 1014.433594 333.441406 1008.546875 334.582031 1002.878906 335.582031 C 994.117188 337.125 985.085938 338.308594 976.363281 336.546875 C 967.640625 334.78125 959.175781 329.589844 955.605469 321.4375 C 950.902344 310.714844 957.039062 296.613281 968.09375 292.734375 C 975.140625 290.265625 984.171875 291.039062 988.621094 285.03125 C 991.15625 281.601562 991.320312 276.832031 993.898438 273.429688 C 1000.542969 264.660156 1019.492188 268.554688 1020.941406 257.644531 C 1021.3125 254.847656 1020.097656 252.097656 1018.722656 249.632812 C 1015.355469 243.597656 1010.8125 238.128906 1008.652344 231.570312 C 1006.496094 225 1007.554688 216.597656 1013.429688 212.957031 C 1016.121094 211.289062 1019.402344 210.875 1022.5625 210.820312 C 1039.34375 210.503906 1054.859375 218.929688 1070.984375 223.585938 C 1076.511719 225.183594 1082.8125 226.25 1087.734375 223.277344 C 1092.660156 220.300781 1093.910156 211.675781 1088.703125 209.230469 C 1085.886719 207.902344 1082.480469 208.875 1079.507812 207.9375 C 1073.363281 206.007812 1072.484375 197.910156 1071.78125 191.507812 C 1071.074219 185.105469 1066.691406 177.101562 1060.523438 178.964844 C 1057.414062 179.910156 1055.40625 183.226562 1052.234375 183.957031 C 1048.089844 184.917969 1044.410156 181.035156 1042.5625 177.199219 C 1040.710938 173.359375 1039.417969 168.878906 1035.859375 166.542969 C 1029.910156 162.644531 1021.984375 167.300781 1017.425781 172.761719 C 1012.867188 178.222656 1008.894531 185.078125 1002.042969 187 C 991.800781 189.871094 981.789062 178.152344 983.46875 167.648438 C 985.152344 157.148438 994.90625 149.519531 1005.128906 146.585938 C 1011.851562 144.667969 1019.742188 143.839844 1023.84375 138.179688 C 1029.570312 130.285156 1023.390625 118.828125 1015.152344 113.609375 C 1006.917969 108.386719 996.816406 106.425781 989.089844 100.464844 C 981.371094 94.515625 977.453125 81.476562 985.109375 75.441406 C 991.496094 70.402344 1001.136719 73.710938 1008.707031 70.734375 C 1012.277344 69.339844 1015.113281 66.640625 1018.09375 64.195312 C 1044.695312 82.5 1068.070312 105.148438 1087.203125 131.113281 C 1122.476562 178.988281 1143.316406 238.140625 1143.316406 302.164062 "
          fill-opacity="1" fill-rule="nonzero"/>
    <g clip-path="url(#202f5a60ee)">
        <path fill="#eef4e8"
              d="M 1018.09375 64.195312 C 992.835938 46.804688 964.675781 33.335938 934.480469 24.664062 C 964.675781 33.335938 992.835938 46.804688 1018.09375 64.195312 M 859.230469 13.496094 C 857.679688 13.472656 856.128906 13.460938 854.570312 13.460938 C 856.128906 13.460938 857.679688 13.472656 859.230469 13.496094 "
              fill-opacity="1" fill-rule="nonzero"/>
    </g>
    <g clip-path="url(#e5c3fb2e2e)">
        <path fill="#9bb780"
              d="M 814.472656 514.859375 C 777.996094 514.859375 743.101562 508.097656 710.96875 495.757812 C 712.382812 489.261719 714.742188 483.4375 720.078125 479.480469 C 726.753906 474.523438 736.046875 474.527344 743.027344 470.011719 C 757.800781 460.457031 754.769531 437.421875 765.113281 423.191406 C 769.640625 416.964844 776.445312 412.859375 783.0625 408.925781 C 793.890625 402.488281 804.71875 396.050781 815.546875 389.613281 C 825.597656 383.636719 835.796875 377.542969 843.730469 368.949219 C 851.660156 360.359375 857.140625 348.765625 855.722656 337.160156 C 854.332031 325.796875 845.945312 315.589844 835.070312 312.015625 C 829.058594 310.039062 822.292969 309.878906 817.082031 306.285156 C 811.449219 302.398438 808.933594 295.394531 804.289062 290.363281 C 791.484375 276.496094 766.816406 281.097656 753.117188 268.117188 C 746.742188 262.070312 743.402344 252.714844 735.554688 248.761719 C 730.59375 246.261719 724.605469 246.402344 719.683594 243.816406 C 716.066406 241.917969 713.328125 238.703125 709.9375 236.425781 C 705.746094 233.613281 701.191406 232.402344 696.597656 232.402344 C 683.945312 232.402344 670.984375 241.5625 664.457031 251.679688 C 663.859375 252.605469 663.28125 253.542969 662.714844 254.484375 C 654.753906 267.796875 649.464844 283.230469 646.34375 298.394531 C 643.304688 313.140625 644.160156 329.601562 650.753906 343.289062 C 657.808594 357.933594 671.175781 369.050781 676.960938 384.242188 C 681.878906 397.148438 680.738281 411.574219 677.882812 425.089844 C 675.023438 438.601562 670.53125 451.796875 668.871094 465.507812 C 668.488281 468.695312 668.257812 471.902344 668.183594 475.113281 C 634.386719 455.222656 604.988281 428.636719 581.828125 397.183594 C 571.605469 367.835938 565.980469 336.328125 565.832031 303.527344 C 565.828125 303.074219 565.828125 302.617188 565.828125 302.164062 C 565.828125 247.3125 581.125 196.03125 607.695312 152.359375 C 609 154.285156 610.453125 156.300781 612.039062 158.425781 C 613.949219 160.976562 615.882812 163.601562 616.765625 166.660156 C 618.839844 173.886719 614.722656 182.4375 618.722656 188.792969 C 621.425781 193.09375 626.921875 194.6875 630.550781 198.246094 C 637.457031 205.007812 636.789062 216.269531 643.113281 223.242188 C 644.667969 224.957031 646.9375 226.160156 649.203125 226.160156 C 649.773438 226.160156 650.34375 226.082031 650.898438 225.921875 C 654.242188 224.949219 656.109375 221.203125 656.21875 217.71875 C 656.335938 214.238281 655.128906 210.863281 654.304688 207.476562 C 653.472656 204.085938 653.066406 200.351562 654.648438 197.246094 C 656.042969 194.515625 658.789062 192.667969 660.15625 189.921875 C 662.03125 186.148438 660.882812 181.558594 658.988281 177.792969 C 657.089844 174.027344 654.476562 170.585938 653.285156 166.542969 C 651.746094 161.34375 652.757812 155.628906 655.175781 150.777344 C 658.527344 144.046875 664.230469 136.507812 672.277344 136.257812 C 672.457031 136.253906 672.636719 136.25 672.820312 136.25 C 679.148438 136.25 685.757812 139.628906 688.246094 145.664062 C 689.058594 147.625 689.480469 149.835938 690.910156 151.414062 C 692.113281 152.738281 693.765625 153.308594 695.507812 153.308594 C 698.023438 153.308594 700.726562 152.121094 702.53125 150.28125 C 705.585938 147.164062 706.960938 142.832031 709.007812 138.980469 C 714.863281 127.914062 727.222656 120.714844 739.695312 120.714844 C 740.957031 120.714844 742.222656 120.789062 743.480469 120.9375 C 747.613281 121.433594 751.820312 122.671875 755.910156 122.671875 C 757.519531 122.671875 759.109375 122.480469 760.671875 121.976562 C 766.039062 120.238281 769.558594 115.25 773.96875 111.742188 C 789.464844 99.402344 814.371094 106.066406 829.734375 93.558594 C 832.507812 91.304688 834.882812 88.386719 835.777344 84.925781 C 837.589844 77.875 832.707031 70.589844 826.507812 66.777344 C 820.304688 62.957031 812.949219 61.640625 806.019531 59.40625 C 802.054688 58.128906 797.503906 55.597656 797.53125 51.429688 C 797.554688 47.59375 801.101562 45.875 805.097656 45.875 C 807.800781 45.875 810.710938 46.664062 812.867188 48.113281 C 817.542969 51.261719 822.300781 55.988281 827.582031 55.988281 C 828.332031 55.988281 829.09375 55.894531 829.863281 55.683594 C 832.25 55.046875 834.21875 53.351562 835.828125 51.480469 C 844.460938 41.410156 843.804688 27.402344 843.160156 13.683594 C 846.945312 13.53125 850.75 13.460938 854.570312 13.460938 C 856.128906 13.460938 857.679688 13.472656 859.230469 13.496094 C 860.25 18.292969 860.59375 23.308594 860.511719 28.15625 C 860.300781 40.425781 857.929688 52.75 859.699219 64.886719 C 860.535156 70.617188 862.570312 76.613281 867.269531 80 C 869.15625 81.359375 871.558594 82.054688 873.90625 82.054688 C 877.402344 82.054688 880.789062 80.523438 882.234375 77.375 C 883.898438 73.738281 882.578125 69.308594 884.054688 65.585938 C 887.390625 57.210938 900.316406 59.332031 907.460938 53.835938 C 910.746094 51.304688 912.578125 47.273438 915.714844 44.558594 C 918.34375 42.285156 921.714844 41.082031 924.617188 39.179688 C 929.671875 35.878906 933.003906 30.542969 934.480469 24.664062 C 964.675781 33.335938 992.835938 46.804688 1018.09375 64.195312 C 1015.113281 66.640625 1012.277344 69.339844 1008.707031 70.734375 C 1001.136719 73.710938 991.496094 70.402344 985.109375 75.441406 C 977.453125 81.476562 981.371094 94.515625 989.089844 100.464844 C 996.816406 106.425781 1006.917969 108.386719 1015.152344 113.609375 C 1023.390625 118.828125 1029.570312 130.285156 1023.84375 138.179688 C 1019.742188 143.839844 1011.851562 144.667969 1005.128906 146.585938 C 994.90625 149.519531 985.152344 157.148438 983.46875 167.648438 C 981.964844 177.058594 989.839844 187.441406 998.863281 187.441406 C 999.910156 187.441406 1000.976562 187.300781 1002.042969 187 C 1008.894531 185.078125 1012.867188 178.222656 1017.425781 172.761719 C 1020.808594 168.710938 1026.042969 165.101562 1030.949219 165.101562 C 1032.65625 165.101562 1034.324219 165.535156 1035.859375 166.542969 C 1039.417969 168.878906 1040.710938 173.359375 1042.5625 177.199219 C 1044.214844 180.632812 1047.339844 184.105469 1050.945312 184.105469 C 1051.371094 184.105469 1051.800781 184.058594 1052.234375 183.957031 C 1055.40625 183.226562 1057.414062 179.910156 1060.523438 178.964844 C 1061.144531 178.78125 1061.746094 178.691406 1062.328125 178.691406 C 1067.53125 178.691406 1071.144531 185.746094 1071.78125 191.507812 C 1072.484375 197.910156 1073.363281 206.007812 1079.507812 207.9375 C 1082.480469 208.875 1085.886719 207.902344 1088.703125 209.230469 C 1093.910156 211.675781 1092.660156 220.300781 1087.734375 223.277344 C 1085.472656 224.644531 1082.917969 225.15625 1080.28125 225.15625 C 1077.179688 225.15625 1073.972656 224.449219 1070.984375 223.585938 C 1055.148438 219.011719 1039.90625 210.8125 1023.472656 210.8125 C 1023.171875 210.8125 1022.867188 210.8125 1022.5625 210.820312 C 1019.402344 210.875 1016.121094 211.289062 1013.429688 212.957031 C 1007.554688 216.597656 1006.496094 225 1008.652344 231.570312 C 1010.8125 238.128906 1015.355469 243.597656 1018.722656 249.632812 C 1020.097656 252.097656 1021.3125 254.847656 1020.941406 257.644531 C 1019.492188 268.554688 1000.542969 264.660156 993.898438 273.429688 C 991.320312 276.832031 991.15625 281.601562 988.621094 285.03125 C 984.171875 291.039062 975.140625 290.265625 968.09375 292.734375 C 957.039062 296.613281 950.902344 310.714844 955.605469 321.4375 C 959.175781 329.589844 967.640625 334.78125 976.363281 336.546875 C 979.449219 337.171875 982.582031 337.425781 985.722656 337.425781 C 991.449219 337.425781 997.222656 336.578125 1002.878906 335.582031 C 1006.558594 334.933594 1010.328125 334.226562 1014.042969 334.226562 C 1016.046875 334.226562 1018.035156 334.429688 1019.984375 334.96875 C 1025.535156 336.5 1030.570312 341.660156 1029.808594 347.367188 C 1029.539062 349.324219 1028.628906 351.253906 1028.992188 353.195312 C 1029.898438 358.085938 1037.160156 358.378906 1040.222656 362.296875 C 1043.0625 365.921875 1041.238281 371.464844 1037.980469 374.722656 C 1034.71875 377.984375 1030.34375 379.882812 1026.828125 382.863281 C 1019.921875 388.707031 1017.011719 398.839844 1019.761719 407.457031 C 1021.378906 412.523438 1024.6875 416.875 1026.875 421.722656 C 1014.691406 434.949219 1001.28125 447.035156 986.832031 457.800781 C 938.726562 493.640625 879.074219 514.859375 814.472656 514.859375 "
              fill-opacity="1" fill-rule="nonzero"/>
    </g>
    <g clip-path="url(#2af5203cf3)">
        <path fill="#769858"
              d="M 649.203125 226.160156 C 646.9375 226.160156 644.667969 224.957031 643.113281 223.242188 C 636.789062 216.269531 637.457031 205.007812 630.550781 198.246094 C 626.921875 194.6875 621.425781 193.09375 618.722656 188.792969 C 614.722656 182.4375 618.839844 173.886719 616.765625 166.660156 C 615.882812 163.601562 613.949219 160.976562 612.039062 158.425781 C 610.453125 156.300781 609 154.285156 607.695312 152.359375 C 656.496094 72.125 743.320312 17.566406 843.160156 13.683594 C 843.804688 27.402344 844.460938 41.410156 835.828125 51.480469 C 834.21875 53.351562 832.25 55.046875 829.863281 55.683594 C 829.09375 55.894531 828.332031 55.988281 827.582031 55.988281 C 822.300781 55.988281 817.542969 51.261719 812.867188 48.113281 C 810.710938 46.664062 807.800781 45.875 805.097656 45.875 C 801.101562 45.875 797.554688 47.59375 797.53125 51.429688 C 797.503906 55.597656 802.054688 58.128906 806.019531 59.40625 C 812.949219 61.640625 820.304688 62.957031 826.507812 66.777344 C 832.707031 70.589844 837.589844 77.875 835.777344 84.925781 C 834.882812 88.386719 832.507812 91.304688 829.734375 93.558594 C 814.371094 106.066406 789.464844 99.402344 773.96875 111.742188 C 769.558594 115.25 766.039062 120.238281 760.671875 121.976562 C 759.109375 122.480469 757.519531 122.671875 755.910156 122.671875 C 751.820312 122.671875 747.613281 121.433594 743.480469 120.9375 C 742.222656 120.789062 740.957031 120.714844 739.695312 120.714844 C 727.222656 120.714844 714.863281 127.914062 709.007812 138.980469 C 706.960938 142.832031 705.585938 147.164062 702.53125 150.28125 C 700.726562 152.121094 698.023438 153.308594 695.507812 153.308594 C 693.765625 153.308594 692.113281 152.738281 690.910156 151.414062 C 689.480469 149.835938 689.058594 147.625 688.246094 145.664062 C 685.757812 139.628906 679.148438 136.25 672.820312 136.25 C 672.636719 136.25 672.457031 136.253906 672.277344 136.257812 C 664.230469 136.507812 658.527344 144.046875 655.175781 150.777344 C 652.757812 155.628906 651.746094 161.34375 653.285156 166.542969 C 654.476562 170.585938 657.089844 174.027344 658.988281 177.792969 C 660.882812 181.558594 662.03125 186.148438 660.15625 189.921875 C 658.789062 192.667969 656.042969 194.515625 654.648438 197.246094 C 653.066406 200.351562 653.472656 204.085938 654.304688 207.476562 C 655.128906 210.863281 656.335938 214.238281 656.21875 217.71875 C 656.109375 221.203125 654.242188 224.949219 650.898438 225.921875 C 650.34375 226.082031 649.773438 226.160156 649.203125 226.160156 "
              fill-opacity="1" fill-rule="nonzero"/>
    </g>
    <g clip-path="url(#c83ebde4c8)">
        <path fill="#769858"
              d="M 873.90625 82.054688 C 871.558594 82.054688 869.15625 81.359375 867.269531 80 C 862.570312 76.613281 860.535156 70.617188 859.699219 64.886719 C 857.929688 52.75 860.300781 40.425781 860.511719 28.15625 C 860.59375 23.308594 860.25 18.292969 859.230469 13.496094 C 885.300781 13.914062 910.527344 17.777344 934.480469 24.664062 C 933.003906 30.542969 929.671875 35.878906 924.617188 39.179688 C 921.714844 41.082031 918.34375 42.285156 915.714844 44.558594 C 912.578125 47.273438 910.746094 51.304688 907.460938 53.835938 C 900.316406 59.332031 887.390625 57.210938 884.054688 65.585938 C 882.578125 69.308594 883.898438 73.738281 882.234375 77.375 C 880.789062 80.523438 877.402344 82.054688 873.90625 82.054688 "
              fill-opacity="1" fill-rule="nonzero"/>
    </g>
    <path fill="#769858"
          d="M 710.96875 495.757812 C 696.070312 490.035156 681.777344 483.121094 668.191406 475.117188 C 668.1875 475.117188 668.1875 475.117188 668.183594 475.113281 C 668.257812 471.902344 668.488281 468.695312 668.871094 465.507812 C 670.53125 451.796875 675.023438 438.601562 677.882812 425.089844 C 680.738281 411.574219 681.878906 397.148438 676.960938 384.242188 C 671.175781 369.050781 657.808594 357.933594 650.753906 343.289062 C 644.160156 329.601562 643.304688 313.140625 646.34375 298.394531 C 649.464844 283.230469 654.753906 267.796875 662.714844 254.484375 C 663.28125 253.542969 663.859375 252.605469 664.457031 251.679688 C 670.984375 241.5625 683.945312 232.402344 696.597656 232.402344 C 701.191406 232.402344 705.746094 233.613281 709.9375 236.425781 C 713.328125 238.703125 716.066406 241.917969 719.683594 243.816406 C 724.605469 246.402344 730.59375 246.261719 735.554688 248.761719 C 743.402344 252.714844 746.742188 262.070312 753.117188 268.117188 C 766.816406 281.097656 791.484375 276.496094 804.289062 290.363281 C 808.933594 295.394531 811.449219 302.398438 817.082031 306.285156 C 822.292969 309.878906 829.058594 310.039062 835.070312 312.015625 C 845.945312 315.589844 854.332031 325.796875 855.722656 337.160156 C 857.140625 348.765625 851.660156 360.359375 843.730469 368.949219 C 835.796875 377.542969 825.597656 383.636719 815.546875 389.613281 C 804.71875 396.050781 793.890625 402.488281 783.0625 408.925781 C 776.445312 412.859375 769.640625 416.964844 765.113281 423.191406 C 754.769531 437.421875 757.800781 460.457031 743.027344 470.011719 C 736.046875 474.527344 726.753906 474.523438 720.078125 479.480469 C 714.742188 483.4375 712.382812 489.261719 710.96875 495.757812 "
          fill-opacity="1" fill-rule="nonzero"/>
    <path fill="#769858"
          d="M 1026.875 421.722656 C 1024.6875 416.875 1021.378906 412.523438 1019.761719 407.457031 C 1017.011719 398.839844 1019.921875 388.707031 1026.828125 382.863281 C 1030.34375 379.882812 1034.71875 377.984375 1037.980469 374.722656 C 1041.238281 371.464844 1043.0625 365.921875 1040.222656 362.296875 C 1037.160156 358.378906 1029.898438 358.085938 1028.992188 353.195312 C 1028.628906 351.253906 1029.539062 349.324219 1029.808594 347.367188 C 1030.570312 341.660156 1025.535156 336.5 1019.984375 334.96875 C 1018.035156 334.429688 1016.046875 334.226562 1014.042969 334.226562 C 1010.328125 334.226562 1006.558594 334.933594 1002.878906 335.582031 C 997.222656 336.578125 991.449219 337.425781 985.722656 337.425781 C 982.582031 337.425781 979.449219 337.171875 976.363281 336.546875 C 967.640625 334.78125 959.175781 329.589844 955.605469 321.4375 C 950.902344 310.714844 957.039062 296.613281 968.09375 292.734375 C 975.140625 290.265625 984.171875 291.039062 988.621094 285.03125 C 991.15625 281.601562 991.320312 276.832031 993.898438 273.429688 C 1000.542969 264.660156 1019.492188 268.554688 1020.941406 257.644531 C 1021.3125 254.847656 1020.097656 252.097656 1018.722656 249.632812 C 1015.355469 243.597656 1010.8125 238.128906 1008.652344 231.570312 C 1006.496094 225 1007.554688 216.597656 1013.429688 212.957031 C 1016.121094 211.289062 1019.402344 210.875 1022.5625 210.820312 C 1022.867188 210.8125 1023.171875 210.8125 1023.472656 210.8125 C 1039.90625 210.8125 1055.148438 219.011719 1070.984375 223.585938 C 1073.972656 224.449219 1077.179688 225.15625 1080.28125 225.15625 C 1082.917969 225.15625 1085.472656 224.644531 1087.734375 223.277344 C 1092.660156 220.300781 1093.910156 211.675781 1088.703125 209.230469 C 1085.886719 207.902344 1082.480469 208.875 1079.507812 207.9375 C 1073.363281 206.007812 1072.484375 197.910156 1071.78125 191.507812 C 1071.144531 185.746094 1067.53125 178.691406 1062.328125 178.691406 C 1061.746094 178.691406 1061.144531 178.78125 1060.523438 178.964844 C 1057.414062 179.910156 1055.40625 183.226562 1052.234375 183.957031 C 1051.800781 184.058594 1051.371094 184.105469 1050.945312 184.105469 C 1047.339844 184.105469 1044.214844 180.632812 1042.5625 177.199219 C 1040.710938 173.359375 1039.417969 168.878906 1035.859375 166.542969 C 1034.324219 165.535156 1032.65625 165.101562 1030.949219 165.101562 C 1026.042969 165.101562 1020.808594 168.710938 1017.425781 172.761719 C 1012.867188 178.222656 1008.894531 185.078125 1002.042969 187 C 1000.976562 187.300781 999.910156 187.441406 998.863281 187.441406 C 989.839844 187.441406 981.964844 177.058594 983.46875 167.648438 C 985.152344 157.148438 994.90625 149.519531 1005.128906 146.585938 C 1011.851562 144.667969 1019.742188 143.839844 1023.84375 138.179688 C 1029.570312 130.285156 1023.390625 118.828125 1015.152344 113.609375 C 1006.917969 108.386719 996.816406 106.425781 989.089844 100.464844 C 981.371094 94.515625 977.453125 81.476562 985.109375 75.441406 C 991.496094 70.402344 1001.136719 73.710938 1008.707031 70.734375 C 1012.277344 69.339844 1015.113281 66.640625 1018.09375 64.195312 C 1044.695312 82.5 1068.070312 105.148438 1087.203125 131.113281 C 1097.578125 160.875 1103.214844 192.859375 1103.214844 226.15625 C 1103.214844 301.601562 1074.269531 370.289062 1026.875 421.722656 "
          fill-opacity="1" fill-rule="nonzero"/>
    <path fill="#f0eee4"
          d="M 829.402344 450.515625 C 824.179688 440.191406 824.464844 428.785156 822.355469 417.273438 C 815.109375 349.148438 776.511719 327.234375 778.203125 272.816406 C 778.8125 218.332031 873.953125 191.277344 905.203125 210.207031 C 956.59375 249.332031 870.710938 297.703125 873.773438 334.480469 C 872.980469 349.222656 879.339844 361.910156 888.59375 373.125 C 967.03125 448.695312 864.246094 512.558594 829.402344 450.515625 "
          fill-opacity="1" fill-rule="nonzero"/>
    <path fill="#f0eee4"
          d="M 789.191406 224.296875 C 789.828125 230.429688 786.554688 235.792969 781.882812 236.28125 C 777.207031 236.765625 772.902344 232.1875 772.265625 226.054688 C 771.628906 219.917969 774.898438 214.554688 779.574219 214.070312 C 784.246094 213.582031 788.554688 218.160156 789.191406 224.296875 "
          fill-opacity="1" fill-rule="nonzero"/>
    <path fill="#f0eee4"
          d="M 807.628906 202.730469 C 808.402344 210.195312 804.621094 216.703125 799.183594 217.269531 C 793.742188 217.835938 788.703125 212.242188 787.925781 204.777344 C 787.152344 197.3125 790.933594 190.808594 796.371094 190.242188 C 801.8125 189.675781 806.851562 195.269531 807.628906 202.730469 "
          fill-opacity="1" fill-rule="nonzero"/>
    <path fill="#f0eee4"
          d="M 836.890625 185.078125 C 837.5625 196.085938 831.863281 205.390625 824.15625 205.863281 C 816.445312 206.335938 809.652344 197.792969 808.980469 186.789062 C 808.304688 175.78125 814.003906 166.476562 821.714844 166.003906 C 829.421875 165.53125 836.214844 174.070312 836.890625 185.078125 "
          fill-opacity="1" fill-rule="nonzero"/>
    <path fill="#f0eee4"
          d="M 879.441406 172.171875 C 880.277344 185.808594 873.175781 197.34375 863.578125 197.933594 C 853.984375 198.519531 845.527344 187.9375 844.691406 174.296875 C 843.855469 160.660156 850.960938 149.125 860.554688 148.539062 C 870.148438 147.949219 878.605469 158.53125 879.441406 172.171875 "
          fill-opacity="1" fill-rule="nonzero"/>
    <path fill="#f0eee4"
          d="M 936.679688 168.261719 C 934.632812 188.644531 921.933594 204.0625 908.316406 202.695312 C 894.695312 201.328125 885.3125 183.699219 887.359375 163.316406 C 889.398438 142.933594 902.097656 127.515625 915.71875 128.882812 C 929.335938 130.246094 938.722656 147.878906 936.679688 168.261719 "
          fill-opacity="1" fill-rule="nonzero"/>
    <path fill="#4d6b32"
          d="M 921.484375 583.042969 C 912.511719 577.835938 905.449219 570.773438 900.292969 561.855469 C 895.132812 552.941406 892.554688 543.164062 892.554688 532.527344 C 892.554688 521.785156 895.054688 511.925781 900.050781 502.953125 C 905.046875 493.984375 912.003906 486.894531 920.921875 481.679688 C 929.839844 476.472656 939.992188 473.867188 951.386719 473.867188 C 960.515625 473.867188 968.390625 475.289062 974.996094 478.136719 C 981.605469 480.984375 987.488281 485.46875 992.648438 491.59375 L 976.6875 505.453125 C 969.921875 498.359375 961.484375 494.816406 951.386719 494.816406 C 944.292969 494.816406 938.058594 496.507812 932.6875 499.890625 C 927.316406 503.277344 923.179688 507.84375 920.277344 513.589844 C 917.378906 519.339844 915.925781 525.652344 915.925781 532.527344 C 915.925781 539.402344 917.402344 545.6875 920.359375 551.378906 C 923.3125 557.074219 927.503906 561.589844 932.929688 564.914062 C 938.355469 568.25 944.667969 569.910156 951.867188 569.910156 C 962.398438 569.910156 970.992188 566.261719 977.65625 558.953125 L 994.097656 572.976562 C 989.585938 578.457031 983.699219 582.808594 976.449219 586.027344 C 969.195312 589.253906 960.839844 590.863281 951.386719 590.863281 C 940.425781 590.863281 930.457031 588.261719 921.484375 583.042969 "
          fill-opacity="1" fill-rule="nonzero"/>
    <path fill="#4d6b32"
          d="M 1020.53125 551.378906 C 1023.429688 557.074219 1027.566406 561.589844 1032.941406 564.914062 C 1038.3125 568.25 1044.546875 569.910156 1051.636719 569.910156 C 1058.726562 569.910156 1064.9375 568.25 1070.253906 564.914062 C 1075.574219 561.589844 1079.65625 557.074219 1082.503906 551.378906 C 1085.347656 545.6875 1086.773438 539.402344 1086.773438 532.527344 C 1086.773438 525.652344 1085.347656 519.339844 1082.503906 513.589844 C 1079.65625 507.84375 1075.574219 503.277344 1070.253906 499.890625 C 1064.9375 496.507812 1058.726562 494.816406 1051.636719 494.816406 C 1044.546875 494.816406 1038.3125 496.507812 1032.941406 499.890625 C 1027.566406 503.277344 1023.429688 507.84375 1020.53125 513.589844 C 1017.628906 519.339844 1016.179688 525.652344 1016.179688 532.527344 C 1016.179688 539.402344 1017.628906 545.6875 1020.53125 551.378906 Z M 1021.738281 583.042969 C 1012.765625 577.835938 1005.703125 570.773438 1000.542969 561.855469 C 995.386719 552.941406 992.808594 543.164062 992.808594 532.527344 C 992.808594 521.890625 995.386719 512.085938 1000.542969 503.113281 C 1005.703125 494.144531 1012.765625 487.027344 1021.738281 481.761719 C 1030.710938 476.5 1040.675781 473.867188 1051.636719 473.867188 C 1062.597656 473.867188 1072.535156 476.5 1081.453125 481.761719 C 1090.371094 487.027344 1097.382812 494.144531 1102.492188 503.113281 C 1107.59375 512.085938 1110.144531 521.890625 1110.144531 532.527344 C 1110.144531 543.164062 1107.59375 552.941406 1102.492188 561.855469 C 1097.382812 570.773438 1090.371094 577.835938 1081.453125 583.042969 C 1072.535156 588.261719 1062.597656 590.863281 1051.636719 590.863281 C 1040.675781 590.863281 1030.710938 588.261719 1021.738281 583.042969 "
          fill-opacity="1" fill-rule="nonzero"/>
    <g clip-path="url(#25f048a901)">
        <path fill="#4d6b32"
              d="M 1116.214844 603.066406 L 1149.78125 563.515625 C 1152.5 560.320312 1154.578125 557.402344 1156.015625 554.765625 C 1157.453125 552.128906 1158.175781 549.613281 1158.175781 547.210938 C 1158.175781 543.539062 1157.074219 540.601562 1154.875 538.402344 C 1152.675781 536.203125 1149.660156 535.109375 1145.824219 535.109375 C 1141.90625 535.109375 1138.890625 536.289062 1136.773438 538.644531 C 1134.652344 541 1133.597656 544.335938 1133.597656 548.652344 L 1116.214844 548.652344 C 1116.214844 542.980469 1117.488281 537.941406 1120.050781 533.546875 C 1122.605469 529.152344 1126.164062 525.71875 1130.71875 523.242188 C 1135.277344 520.765625 1140.390625 519.527344 1146.066406 519.527344 C 1151.734375 519.527344 1156.8125 520.703125 1161.289062 523.0625 C 1165.765625 525.414062 1169.261719 528.632812 1171.78125 532.707031 C 1174.296875 536.785156 1175.554688 541.300781 1175.554688 546.253906 C 1175.554688 549.691406 1175.015625 552.90625 1173.9375 555.902344 C 1172.855469 558.898438 1170.957031 562.117188 1168.242188 565.550781 L 1155.175781 582.574219 C 1152.460938 586.089844 1149.976562 588.648438 1147.742188 590.246094 L 1176.035156 590.246094 L 1176.035156 604.984375 L 1116.214844 604.984375 L 1116.214844 603.066406 "
              fill-opacity="1" fill-rule="nonzero"/>
    </g>
</svg>